<svg id="icons" xmlns="http://www.w3.org/2000/svg" viewBox="0 0 48 48"><title>crop-tool</title><g id="crop-tool"><path d="M2,47a1,1,0,0,1-.71-.29,1,1,0,0,1,0-1.42l44-44a1,1,0,1,1,1.42,1.42l-44,44A1,1,0,0,1,2,47Z" fill="#252b33"/><g id="crop-tool-2" data-name="crop-tool"><polygon points="33 15 33 46 40 46 40 8 2 8 2 15 33 15" fill="#b1bfc9"/><path d="M40,47H33a1,1,0,0,1-1-1V16H2a1,1,0,0,1-1-1V8A1,1,0,0,1,2,7H40a1,1,0,0,1,1,1V46A1,1,0,0,1,40,47Zm-6-2h5V9H3v5H33a1,1,0,0,1,1,1Z" fill="#252b33"/><polygon points="15 33 15 2 8 2 8 40 46 40 46 33 15 33" fill="#fc3768"/><path d="M46,41H8a1,1,0,0,1-1-1V2A1,1,0,0,1,8,1h7a1,1,0,0,1,1,1V32H46a1,1,0,0,1,1,1v7A1,1,0,0,1,46,41ZM9,39H45V34H15a1,1,0,0,1-1-1V3H9Z" fill="#252b33"/></g></g></svg>